<svg xmlns="http://www.w3.org/2000/svg" xmlns:xlink="http://www.w3.org/1999/xlink" version="1.1" x="0px" y="0px" viewBox="0 0 500 450" enable-background="new 0 0 500 450" xml:space="preserve"><style>.style0{stroke-linejoin:	round;stroke:	#000000;stroke-linecap:	round;fill:	none;}</style><g><path vector-effect="non-scaling-stroke" d="M169.275 226.4 c12.659 75 7.9 77 58.2 124.4" class="style0"/><path vector-effect="non-scaling-stroke" d="M225.617 344.3 c3.968 19.7 28.2 26.6 46.3 26.051c21.247-0.623 24.91-13.354 36.806-25.966c49.234-52.208 29.076-63.807 43.379-123.048 c2.447-10.125-11.106-28.772-10.916-39.221c0.157-8.671 4.617-17.356 4.768-25.708c0.33-17.983-14.957-36.915-23.516-50.922 c-10.084-16.496-41.179 16.499-54.986 15.182c-12.857-1.225-25.507-8.175-35.168-16.516c-11.054-9.544-47.789 32.87-55.555 45.3 c-4.625 7.4 3.9 25.1 4.2 33.625c0.323 11.027-7.656 17.136-9.743 25.787c-0.541 2.2 3 18.8 1 18.3 c-10.539-2.545-9.075-29.197-15.937-36.624" class="style0"/><path vector-effect="non-scaling-stroke" d="M157.256 192 c-2.348-0.102-3.587 4.167-3.636 6.837c-0.106 5.8 5.1 9.8 5 15.338c-0.112 5.986-2.824 31.6 6.4 31.7 c3.134 0.1 4.311-2.634 6.595-3.957" class="style0"/><path vector-effect="non-scaling-stroke" d="M163.134 237.2 c-0.446 4.8 4.4 4.3 2.8 0.345C164.655 234.9 163.5 233.9 163.1 237.207z" class="style0"/><path vector-effect="non-scaling-stroke" d="M352.142 206.6 c4.719-1.41 10.56-16.537 11.116-22.358c0.244-2.557-5.015-5.223-4.015-7.87c1.973-5.227 7.082-8.932 8.48-14.711 c0.596-2.462-2.52-4.317-2.473-6.908c0.049-2.655 5.574-8.918 7.066-11.306c3.375-5.396-6.69-3.589 2.412-18.149 c0.221-0.357 3.69-6.064 3.34-6.489c-7.159-8.669-8.193 5.2 1.188-19.626c1.409-3.731-7.77-1.271-8.255-3.374 c-0.553-2.396 2.436-10.917 1.953-11.218c-1.518-0.949-4.248-4.124-6.031-4.554c-2.035-0.492-0.119-7.293-1.54-7.428 c-3.446-0.328-10.513 2.396-13.204 0.713c-1.314-0.822-1.044-7.17-1.249-7.22c-4.851-1.172-8.743 7.064-12.964 3.1 c-14.965-14.116-20.331-31.068-48.123-52.135c-15.239-11.551-24.222 14.94-40.904 22.472c-18.217 8.227-2.368-3.134-10.406-5.076 c-1.084-0.261-7.334 5.063-8.321 5.878c-4.183 3.455-5.552-4.707-8.576-2.86c-3.504 2.142-3.528 7.311-7.965 9.3 c-9.085 4.103-12.812-2.654-26.406 5.652c-4.193 2.562-1.777 6.688-4.529 8.962c-3.29 2.716-9.638 1.744-13.397 4.8 c-1.445 1.2 1.9 5.1 0.6 6.458c-3.068 3.253-7.426 4.144-10.729 6.874c-1.318 1.1 3.9 4.8 2.1 7 c-4.208 4.991-10.392 8.619-13.879 14.198c-0.731 1.2 6.1 3 5.8 6.135c-0.357 3.777-4.388 7.92-5.717 11.4 c-1.143 3 4.3 5.5 3.8 8.802c-0.69 4.446-5.457 7.773-6.875 12.142c-1.096 3.4 6.6 24.9 8.6 29.7 c2.985 7.224-6.492 16.3 3.2 21.2" class="style0"/><path vector-effect="non-scaling-stroke" d="M185.758 304.4 c-11.344 17.21-6.125 38.461-1.697 57.651c3.997 17.3 19.4 43.4 34.5 52.804c1.396 0.9 19.879-7.268 25.314-9.86 c11.327-5.41 24.643-6.72 35.591-12.802c16.817-9.338 55.807-36.066 45.106-65.283" class="style0"/><path vector-effect="non-scaling-stroke" d="M165.504 363.2 c5.162 9.4 38.1 66.8 43.3 70.054c0.119 0.1 16.985-7.912 18.465-8.73c19.411-10.732 41.226-8.751 59.962-20.907" class="style0"/><path vector-effect="non-scaling-stroke" d="M183.471 300.2 c-31.144 16.303-116.266 15.465-138.272 38.803c-7.519 7.974-13.846 20.657-19.574 29.8" class="style0"/><path vector-effect="non-scaling-stroke" d="M338.573 310.3 c40.449 24.2 93.6 22.7 130.9 51.1" class="style0"/><path vector-effect="non-scaling-stroke" d="M234.116 293.8 c9.249-0.689 21 0.3 31.1 0.092c13.112-0.234 24.66-0.913 36.705-3.346c3.628-0.729-10.626 12.597-13.525 14.3 C271.283 314.7 245.7 309.6 234.1 293.799z" class="style0"/><path vector-effect="non-scaling-stroke" d="M175.751 231.9 c5.159 13.91-1.225 35.6 6.8 48.683c5 8.2 17.4 8.4 22.7 15.655c5.303 7.3 7.7 6.9 12.2 8 c3.781 1 5.1-10.417 5.009-20.075c-0.066-6.838 18.435-10.774 18.792-10.967" class="style0"/><path vector-effect="non-scaling-stroke" d="M346.828 239.1 c-5.761 53.624-0.565 31.777-24.587 57.25c-0.889 0.941-6.861 5.465-7.762 4.902c-6.301-3.938 2.344-21.295-0.941-23.347 c-3.062-1.915-8.728-3.292-12.307-5.165" class="style0"/><path vector-effect="non-scaling-stroke" d="M251.244 336.9 c9.311 7.5 22.835-2.995 32.605-0.184" class="style0"/><path vector-effect="non-scaling-stroke" d="M256.257 253.4 c-9.047-8.493-18.813 6.756-13.155 15.29c4.608 6.9 12.2 0.8 16.5 3.465c3.817 2.4 6 6.7 11.6 6.9 c6.187 0.2 8.663-6.459 11.653-6.549c4.771-0.138 8.2 3 12.065-1.307c5.417-6.01 0.055-26.207-8.129-17.53" class="style0"/><path vector-effect="non-scaling-stroke" d="M246.576 313.9 c5.692 4.6 11.8 6.2 24.4 5.103c7.85-0.703 11.718-1.179 16.315-4.699" class="style0"/><path vector-effect="non-scaling-stroke" d="M247.697 200.9 c0.18-1.094 2.778-4.993 1.078-5.811c-3.79-1.821-6.69 6.029-9.418 5.371c-1.283-0.31-0.79-4.341-3.638-4.221 c-3.284 0.136-3.527 3.609-5.838 4.143c-1.132 0.261-5.107-3.663-7.461-3.475c-5.385 0.432-5.545 4.207-8.689 6.8 c-2.105 1.74-9.303 1.539-12.471 3.678c-2.155 1.455-3.708 3.91-4.347 5.4" class="style0"/><path vector-effect="non-scaling-stroke" d="M292.39 201.2 c-6.024-10.865 3.1 0.3 5.69-1.618c0.975-0.698 1.492-5.596 3.055-5.148c2.387 0.7 2.8 5.1 5.9 4.8 c2.215-0.188 3.191-5.071 5.53-4.506c2.579 0.6 3.8 3.7 6.1 4.65c1.471 0.6 15.2 3.8 16.7 10.1" class="style0"/><path vector-effect="non-scaling-stroke" d="M289.361 210.4 c9.005-1.682 22.144-8.945 30.55-0.038c3.305 3.5 5.3 5.7 9.5 8" class="style0"/><path vector-effect="non-scaling-stroke" d="M324.335 216.4 c-4.518 5.167-28.607 1.574-35.215 2.173c-1.501 0.1 4.807-7.59 5.296-9.16" class="style0"/><path vector-effect="non-scaling-stroke" d="M305.548 206.7 c-2.196 0.104-3.325 0.543-4.35 2.496c-7.081 13.5 17.9 9.4 10.045-0.105C309.8 207.3 307.7 206.4 305.5 206.654z" class="style0"/><path vector-effect="non-scaling-stroke" d="M200.459 224.1 c7.666-14.394 12.774-17.552 42.462-15.384" class="style0"/><path vector-effect="non-scaling-stroke" d="M239.288 208.8 c-0.563 4.5 6.4 7.8 4 9.213c-7.098 4.161-34.018 7.659-37.823-1.511" class="style0"/><path vector-effect="non-scaling-stroke" d="M219.126 211.3 c-1.061 1.488-1.069 2.8-0.945 4.343c0.611 7.7 10.9 7 12.7 0.343C232.746 208.9 222.8 206.7 219.1 211.294z" class="style0"/><path vector-effect="non-scaling-stroke" d="M275.339 282.1 c3.58 7.647-2.059 7.733-6.323 6.7" class="style0"/><g><path vector-effect="non-scaling-stroke" d="M185.961 300.4 c-1.146 16.937-9.101 33.289-7.512 50.659c1.604 17.6 9.5 31.8 18.8 46.452c19.75 31.4 16.9 14.1 48.7 1.8 c27.683-10.694 96.075-42.589 87.931-77.885" class="style0"/><path vector-effect="non-scaling-stroke" d="M170.578 373.3 c4.191 13.3 12.6 25.1 18 37.951c20.778 48.9 6.5 15.8 84.355-2.125" class="style0"/><path vector-effect="non-scaling-stroke" d="M148.011 310.4 c-23.128 16.842-99.208 18.595-117.871 34.011c-10.593 8.747-7.553 24.991-5.794 36.634c0.877 5.8 3.5 23.2 2.2 17.5 c-6.599-28.604-2.034-39.411-22.57-6.559" class="style0"/><path vector-effect="non-scaling-stroke" d="M350.417 320.7 c21.326 22 105.3 24.9 121.8 44.968c1.548 1.872-7.051 25.814-7.465 24.015c-0.855-3.704 4.057-14.309 8.28-12.437 c11.273 5 15.2 31.2 23 40.5" class="style0"/><path vector-effect="non-scaling-stroke" d="M169.725 219.3 c10.513 24.5 4.9 53.5 14.2 77.844c3.405 8.8 55.8 72 68.5 74c24.572 3.8 45.816-8.092 58.031-27.633 c3.834-6.131 12.529-7.968 16.51-14.34c21.457-34.325 22.894-75.304 23.617-115.062" class="style0"/><path vector-effect="non-scaling-stroke" d="M164.888 195.6 c-30.257-35.847-6.721 63.2 5 48.4" class="style0"/><path vector-effect="non-scaling-stroke" d="M351.056 205.3 c16.213-0.87 1.4 36.7 2.2 49.7" class="style0"/><path vector-effect="non-scaling-stroke" d="M250.546 333.9 c10.255-1.614 2.7 0.8 8.5 4.402c2.331 1.453-1.9-13.812 3.441-1.229c0.04 0.1 1.5 3.6 2.3 3.4 c0.284-0.065 2.053-7.425 2.815-6.782c0.17 0.1 4.2 6.4 5 4.749c0.639-1.323-0.585-4.593 0.674-5.63 c0.454-0.374 6.1 5 6.8 3.902c0.362-0.583-2.162-7.605-2.193-7.598c-2.773 0.6 5 4.1 7.8 3.5" class="style0"/><path vector-effect="non-scaling-stroke" d="M224.486 297.8 c15.841-10.058 7.006-6.479 23.664-2.829c15.384 3.4 33.4 2.4 48.603-2.013c0.526-0.152 4.858-2.481 5.169-2.289 c7.501 4.689-24.098 27.178-38.592 26.429c-15.536-0.803-51.56-18.93-10.399-8.99c8.565 2.1 17.5 2.1 25.3 0.3" class="style0"/><path vector-effect="non-scaling-stroke" d="M344.727 238.1 c0.888 5.9 0.5 1.6 0.2 8.379c-1.913 40.3 1.2 33.357-25.073 53.696c-7.016 5.438-3.93 8.337-7.868 2.4" class="style0"/><path vector-effect="non-scaling-stroke" d="M177.018 224.8 c9.278 11.9 2.6 61.7 11.3 69.959c2.328 2.2 9.387-0.925 12.201-0.415c6.336 1.1 9.2 7.6 14 11.2" class="style0"/><path vector-effect="non-scaling-stroke" d="M229.994 285.5 c2.599 4.5 10.99-14.753 12.156-9.702c1.971 8.5 2.5 2.7 8.7 2.496c1.704-0.051 3.3 2.9 5.8 2.9 c10.34-0.305 19.419-1.184 29.765-3.569c3.037-0.7 5.386-5.417 8.302-4.313c11.756 4.4 26.1 8.1 14.5 26.6" class="style0"/><path vector-effect="non-scaling-stroke" d="M254.571 251.6 c-3.135-1.727-8.17-1.506-11.149 1.072c-7.541 6.5 0.5 17.4 7.6 20.126c4.028 1.5 12.629-3.555 14.782-2.209 c2.422 1.5 2.6 5.8 6.6 5.366c3.304-0.386 7.482-5.989 9.529-5.496c2.558 0.6 17.503-0.571 17.695-2.583 c1.808-18.935-5.741-13.097-11.672-16.802c-3.328-2.081-2.635-7.396-4.051-11.059" class="style0"/><path vector-effect="non-scaling-stroke" d="M255.645 247.2 c-1.064 5.603-0.616 9.1 4.3 11" class="style0"/><path vector-effect="non-scaling-stroke" d="M210.964 217.3 c7.046 10.8 13.9 4.9 25.7 2.169c6.99-1.612 14.5 5.7 7.974-5.736c-2.579-4.521-5.522-6.946-10.864-6.791 c-29.875 0.876-23.476 14.714-35.263 17.4" class="style0"/><path vector-effect="non-scaling-stroke" d="M321.964 217.5 c-25.478 15.785-51.698-11.33-14.388-7.776c2.685 0.3 8.342-1.366 10.492-0.02c4.788 3 8.6 10.7 13.4 13.7" class="style0"/><path vector-effect="non-scaling-stroke" d="M215.412 214.5 c-1.359 3.9 1 4.5 4.8 5.193c15.995 3 18.715-17.032 1.799-9.113" class="style0"/><path vector-effect="non-scaling-stroke" d="M298.113 211.6 c-6.377 25.8 35.763-7.952 8.038-1.555" class="style0"/><path vector-effect="non-scaling-stroke" d="M255.06 219.7 c10.221-17.738 4.461-8.181-2.754-16.917c-2.776-3.363-2.771-15.759-5.081-12.061c-7.283 11.651-3.79 4.76-21.77 0.4 c-2.855-0.689-0.961 7.436-3.258 7.081c-1.021-0.159-7.937-6.002-8.824-4.581c-1.078 1.7 0.8 5.836-1.157 7.5 c-0.393 0.325-4.887-3.565-6.952-2.711c-3.225 1.332-6.758 7.889-14.457 9.7" class="style0"/><path vector-effect="non-scaling-stroke" d="M286.45 202.4 c6.383-1.297 17.164-9.375 16.771-9.622c-2.718-1.699-1.358 8.3 6.7 9.098c2.117 0.2 7.363-5.965 8.657-4.874 c1.237 1 0.3 5.5 2.8 5.967c6.851 1.3 10.203-1.629 18.5 1.5" class="style0"/><path vector-effect="non-scaling-stroke" d="M181.64 170.5 c0.155-0.182-18.261 50.666-18.102 49.643c2.426-15.645 14.48-27.877 14.78-44.331c0.1-5.467-1.604-21.722-0.375-16.396 c1.255 5.438-6.59 21.162-6.061 15.607c1.355-14.214 23.918-56.668 30.885-58.276c0.668-0.154 3.6 3.7 5.4 3.9 c1.117 0.1 12.503-24.529 13.324-23.535c4.057 4.913-1.047 15.9 6.1 19.053c9.277 4.1 47.981-13.739 47.072-17.68 c-0.051-0.219-18.323 18.575-13.367 18.429c9.891-0.291 17.543-2.553 25.402-8.134c4.968-3.528 10.835-19.552 12.205-13.614 c0.931 4.038-1.224 11.008-2.825 14.86c-0.599 1.446-3.818 3.153-2.488 3.984c6.955 4.3 30.593-13.878 24.405-12.451 c-0.047 0 1.1 4.6 1.1 4.856c0.639 21.7 8.2 0.2 23.7 18.971c4.964 6 4.8 62.5 7.9 76" class="style0"/><path vector-effect="non-scaling-stroke" d="M154.662 173.4 c-6.577-3.825-10.639-11.881-11.292-19.572c-0.165-1.92 4.076-6.463 3.328-6.929c-8.458-5.288-11.764-22.819-7.915-28.975 c2.913-4.663 13.712-5.176 17.277-13.227c2.772-6.266-1.525-16.897 4.996-18.401c15.986-3.688 22.195-26.683 19.843-26.14 c-1.25 0.3 2.5 2.6 3.5 1.665c0.668-0.645 8.085-7.535 8.144-7.423c8.583 16.8 22.214-17.148 29.787-12.417 c8.173 5.1 7.2 7.8 19.9 0.946c4.459-2.397 33.896-30.554 35.636-29.783c60.628 26.8 25.9 20.9 38.6 41.6 c1.352 2.2 5.138-0.944 7.1 1.439c3.614 4.4 5.6 10 10.4 13.005c4.137 2.6 13.086-1.018 16 2.5 c3.573 4.3 2.6 14.6 4.6 19.887c2.23 5.8 10.6 13.7 14.8 18.762c5.84 7.072-5.004 18.438-6.568 24.9 c-1.896 7.8 4.8 13.1 4.1 20.607c-1.59 16.668-7.248 30.006-11.568 43.3" class="style0"/><path vector-effect="non-scaling-stroke" d="M239.884 67.5 c2.88-1.775 17.967-12.913 17.188-16.286c-1.153-4.994-5.957 8.396-9.541 12.059c-1.82 1.859-15.207 11.499-15.569 15.3 c-0.402 4.2 14.941-4.68 12.691-1.079c-0.475 0.757-9.156 13.807-6.526 14.442c11.639 2.8 25.594-5.25 39.999-21.549 c10.661-21.022 1 3.005-0.224 12.4" class="style0"/></g><path vector-effect="non-scaling-stroke" d="M304.425 214.5 c-1.206-1.657 6 5.6 4.7 4.001c-0.595-0.713-5.405-9.025-4.667-9.468c1.808-1.086 5.7 5.6 3.6 5.2 c-4.501-0.901 1.995-7.479 3.467-4.535c1.44 2.881-5.296 8.314-6.934 6.268c-2.305-2.882 1.484-8.253 4.001-2.8" class="style0"/><path vector-effect="non-scaling-stroke" d="M227.606 211.3 c-3.778-4.417-8.365 0.343-6.99 5.019c3.024 10.3 4.302-8.75 4.302-2.51" class="style0"/><path vector-effect="non-scaling-stroke" d="M301.809 210.2 c1.321-0.993-4.672 4.641-3.326 3.68c1.275-0.912 4.601-4.26 3.396-3.256c-2.877 2.397-3.979 4.692-3.892 4.7 c3.939-0.984 8.782-6.693 7.502-5.307c-0.817 0.883-6.915 6.623-6.441 7.572c0.091 0.2 8.503-6.522 8.138-6.158 c-2.881 2.882-6.045 5.238-5.095 5.238c0.951 0 10.568-8.496 5.378-4.105c-2.156 1.824-8.26 7.293-5.591 6.4 c2.728-0.944 9.46-6.571 7.289-4.672c-0.49 0.431-4.016 3.293-3.607 4.105c0.705 1.4 4.033-4.055 4.033-2.477 c0 1.055-2.105 2.17-1.98 3" class="style0"/><path vector-effect="non-scaling-stroke" d="M223.194 210.6 c-0.945 1.746-3.499 2.672-4.272 4.475c-0.562 1.3 9.098-6.006 8.477-5.152c-1.045 1.438-5.628 4.343-5.628 6.2 c0 0.3 6.07-4.054 5.967-3.933c-1.047 1.221-4.34 3.963-4.34 5.628c0 0.3 7.111-5.749 6.984-5.628 c-1.692 1.607-5.363 4.361-5.561 6.916c-0.135 1.8 5.234-4.11 4.679-2.441c-0.712 2.137-3.237 5 0 3.5" class="style0"/></g></svg>