<?xml version="1.0" encoding="utf-8"?>
<!-- Generator: Adobe Illustrator 16.2.1, SVG Export Plug-In . SVG Version: 6.00 Build 0)  -->
<!DOCTYPE svg PUBLIC "-//W3C//DTD SVG 1.1//EN" "http://www.w3.org/Graphics/SVG/1.1/DTD/svg11.dtd">
<svg version="1.1" id="Layer_1" xmlns="http://www.w3.org/2000/svg" xmlns:xlink="http://www.w3.org/1999/xlink" x="0px" y="0px"
	 viewBox="2684.5 843.308 966.826 941.669"
	 enable-background="new 2684.5 843.308 966.826 941.669" xml:space="preserve">
<g>
	<path fill="none" stroke="#000000" stroke-width="1" vector-effect="non-scaling-stroke" d="M3293.129,1597.294c-148.945-113.701-286.044-243.215-439.516-350.924
		c-22.463-15.765-46.305-29.456-69.795-43.629c-9.213-5.558-32.371-21.958-30.181-11.38
		c26.438,127.612,296.572,303.317,399.903,364.2c45.742,26.953,179.455,115.308,247.11,79.671
		c31.521-16.604,43.376-74.787,45.272-102.434c11.156-162.684-81.744-326.864-186.748-443.87
		c-22.076-24.599-72.724-78.158-98.09-64.493c-63.666,34.297,57.358,390.837,71.682,449.561
		c6.874,28.182,12.959,56.627,16.977,85.36c1.664,11.896,10.469,30.251,0,36.04c-46.393,25.658-270.428-334.214-299.928-379.376
		c-15.225-23.308-30.576-46.538-45.271-70.185c-4.472-7.194-18.62-27.014-11.318-22.763c84.756,49.343,172.722,82.452,262.2,123.297
		c110.134,50.273,178.94,84.959,281.064,147.956c31.662,19.533,62.15,40.964,92.432,62.599
		c17.532,12.526,34.088,26.384,50.931,39.833c4.875,3.894,19.189,14.998,13.204,13.278
		c-125.237-35.98-238.721-104.663-348.972-172.615c-86.688-53.428-166.824-109.979-250.884-166.926
		c-22.563-15.284-45.13-30.566-67.907-45.525c-8.49-5.575-33.945-21.995-26.409-15.175
		c53.786,48.679,122.991,80.758,181.087,123.297c106.711,78.137,193.027,168.266,275.406,271.255
		c13.722,17.154,75.055,106.958,96.203,106.226c64.264-2.229-25.482-396.98-35.84-440.077
		c-7.203-29.971-16.415-59.417-24.523-89.154c-2.741-10.056-7.995-40.768-7.545-30.35c3.756,86.876,13.848,181.428-15.091,265.562
		c-15.452,44.926-40.278,86.625-67.907,125.195c-25.193,35.171-197.945,223.77-258.429,119.505
		c-48.564-83.719,64.968-282.716,88.659-358.513c35.079-112.242,35.328-145.744,39.612-259.872
		c1.163-31.019,16.167-70.999-5.659-92.948c-12.643-12.71-25.111,81.603-26.409,89.154
		c-23.376,136.095-31.073,272.171-58.478,407.83c-25.604,126.766-13.377,74.545-45.271,178.308
		c-3.289,10.704-8.374,43.4-9.431,32.246c-6.803-71.822,27.312-231.365,37.727-303.501c6.932-48.023,11.317-172.797,54.704-214.348
		c21.346-20.443,60.926,14.518,69.795,22.762c62.614,58.214,120.313,155.195,101.861,244.698
		c-27.244,132.146-222.924,145.624-326.337,127.093c-30.148-5.404-58.944-17.494-86.771-30.351
		c-8.24-3.807-63.924-33.289-69.795-56.907c-12.441-50.047,145.498-71.348,156.565-73.979
		c130.069-30.915,297.802-70.542,431.973-49.319c48.63,7.693,130.19,40.541,105.634,108.123
		c-20.463,56.316-72.396,81.727-122.611,106.226c-146.496,71.47-309.122,59.72-394.245-98.638
		c-27.094-50.405-43.297-144.009-30.183-202.968c35.909-161.422,311.649-30.141,392.359,1.897
		c47.23,18.748,185.32,73.468,205.611,134.679c8.797,26.541-44.01,37.619-52.817,41.731
		c-110.68,51.674-227.517,88.574-335.769,146.061c-22.22,11.799-42.751,26.565-64.136,39.834
		c-9.097,5.645-33.794,24.393-28.295,15.176c75.978-127.337,91.388-165.402,103.749-322.471
		c3.863-49.096,3.589-155.027-3.772-210.555c-4.468-33.691-19.747-38.838-22.637-34.144
		c-64.487,104.755-24.384,193.411,9.432,301.604c42.865,137.153,93.746,272.94,116.953,415.418
		c6.386,39.202,13.362,113.128,0,117.606c-11.207,3.757-23.797-6.691-32.067-15.175
		c-122.681-125.834-213.098-416.543-237.678-588.034c-1.56-10.873-15.517-109.584,5.658-134.679
		c26.657-31.593,83.884-11.917,109.407,0c141.602,66.111,301.452,234.214,354.631,381.273
		c11.917,32.953,36.726,130.217-9.432,165.028c-17.287,13.039-42.729,12.455-64.135,9.486
		c-129.003-17.894-218.822-124.426-309.359-206.762c-37.727-34.309-241.894-199.054-254.656-250.389
		c-5.642-22.696,44.807,13.162,66.022,22.763c30.003,13.577,58.522,30.352,88.658,43.629
		c92.939,40.943,129.195,51.646,228.246,77.771c66.741,17.604,235.545,82.543,264.088-30.351
		c36.909-145.986-143.377-361.832-262.201-189.688c-94.22,136.5-72.721,284.11-205.611,449.562
		c-18.636,23.203-9.801-59.415-7.545-89.154c4.601-60.661,28.814-241.813,33.954-295.913c7.75-81.571,7.728-163.241,15.09-244.699
		c2.548-28.163-9.216,55.81-15.09,83.464c-8.22,38.7-16.522,77.406-26.409,115.71c-28.025,108.584-102.941,267.451-86.771,381.274
		c3.619,25.479,46.652-21.701,67.908-36.041c86.45-58.323,166.011-128.071,273.519-142.266
		c150.418-19.863,259.131,90,358.404,187.79c13.215,13.018,24.189,51.948,18.863,53.113
		c-84.644,18.503-284.096-157.453-337.655-201.07c-48.549-39.538-95.644-80.85-143.361-121.399
		c-41.568-35.326-82.95-70.875-124.498-106.227c-23.845-20.29-47.684-40.591-71.681-60.7c-7.638-6.4-14.581-17.071-24.521-17.071
		c-15.721,0,16.414,27.584,28.295,37.937c17.131,14.931,37.41,25.784,56.59,37.938c154.348,97.804,299.379,192.865,428.198,324.366
		c28.267,28.856,84.993,78.356,73.565,96.741c-2.331,3.754-9.013,1.357-13.203,0c-235.436-76.242-375.462-138.246-550.81-316.779
		c-21.329-21.716-40.332-45.718-58.478-70.185c-19.449-26.226-30.622-50.046-24.522-53.113c4.638-2.331,10.412,1.549,15.091,3.794
		c23.1,11.086,45.486,23.627,67.909,36.041c184.037,101.891,369.867,211.207,530.061,349.026
		c33.181,28.548,94.626,88.004,122.611,127.091c23.358,32.624,24.763,59.24,16.978,58.805
		c-89.739-5.014-293.92-230.636-350.859-288.327c-39.787-40.313-80.102-80.253-116.952-123.297
		c-44.978-52.534-88.018-106.855-128.271-163.133c-20.573-28.762-32.362-63.661-35.841-98.638
		c-7.938-79.831,90.544-47.445,132.044-30.349c172.528,71.068,411.326,328.203,445.177,517.848
		c2.578,14.444,16.27,95.944-9.433,115.71c-34.556,26.573-125.923-22.028-139.589-30.351
		c-89.339-54.396-152.452-126.663-226.361-199.172c-144.972-142.228-90.053-89.052-232.02-220.039
		c-23.935-22.084-47.811-44.233-71.68-66.39c-10.455-9.705-40.242-40.468-30.182-30.351
		c38.886,39.103,88.775,97.818,122.612,138.473c49.192,59.104,109.144,135.121,139.589,206.761
		c21.838,51.385,41.398,136.156,30.181,195.378c-2.859,15.096-23.838,52.798-49.044,37.938
		c-72.227-42.575-66.643-249.947-66.023-318.676c0.572-63.283-10.591-177.619,56.592-220.039
		c87.819-55.451,217.309,84.02,260.313,140.369c36.038,47.222,69.144,112.05,82.999,170.72c8.77,37.132,8.129,109.518-5.658,113.812
		c-167.76,52.273-391.343-206.928-473.472-330.058c-6.683-10.018-74.567-112.277-50.931-140.369
		c25.249-30.007,161.926,58.917,171.656,64.494c166.459,95.412,368.384,256.713,494.221,402.14
		c36.925,42.673,72.969,108.83,60.363,117.605c-25.442,17.713-195.22-99.745-201.838-104.326
		c-135.299-93.678-262.489-198.794-392.358-299.708c-17.536-13.626-106.864-68.862-124.498-104.329
		c-1.192-2.399,3.859,3.71,5.659,5.69c11.407,12.564,22.498,25.417,33.954,37.938c17.47,19.096,35.571,37.606,52.816,56.907
		c84.088,94.104,170.281,197.551,216.93,316.779c1.866,4.768,17.296,57.708,11.317,66.391c-13.064,18.976-87.462-29.25-98.09-36.041
		c-116.035-74.143-215.285-183.399-273.519-309.192c-17.03-36.786-21.532-73.49-18.863-73.979
		c39.763-7.27,140.926,74.625,164.112,91.052c131.73,93.328,251.236,201.524,367.834,312.986c21.27,20.33,42.645,40.64,62.25,62.595
		c8.157,9.137,13.979,20.137,20.749,30.352c2.034,3.068,7.3,6.188,5.66,9.484c-1.435,2.884-6.814-0.034-9.433-1.897
		c-23.412-16.651-45.778-34.771-67.908-53.112c-161.258-133.648-307.348-285.686-460.266-428.696
		c-23.77-22.229-46.388-45.672-69.795-68.287c-4.311-4.166-33.78-31.178-32.068-30.351c140.984,68.05-49.418-15.104,122.612,60.701
		c185.991,81.956,381.908,146.191,556.47,252.286c24.949,15.162,118.84,83.476,118.84,91.05c0,3.687-6.602-3.348-9.432-5.692
		c-18.585-15.39-37.014-30.999-54.704-47.421c-31.37-29.119-61.835-59.212-92.431-89.153
		c-116.613-114.125-228.202-230.714-320.678-366.099c-16.118-23.598-29.35-49.071-43.385-73.979
		c-14.955-26.538-24.533-53.105-30.182-51.216c-14.539,4.873-4.438,21.686,1.886,37.938c11.44,29.396,53.013,88.144,67.908,111.916
		c49.347,78.747,104.063,163.913,130.157,254.183c3.614,12.499,23.762,103.772,0,125.194c-10.768,9.708-29.709,4.728-43.385,0
		c-125.342-43.327-175.957-171.416-247.11-271.255c-10.928-15.332-22.804-30.066-35.841-43.628
		c-7.818-8.132-31.2-26.439-30.182-15.175c0.637,7.04-0.038,14.925,3.773,20.865c22.909,35.709,58.843,61.055,86.771,92.948
		c103.403,118.08,184.722,253.689,269.746,385.066c21.848,33.76,37.314,57.311,49.045,94.845c3.04,9.727,13.851,31.478,3.772,30.351
		c-22.071-2.467-134.187-127.983-145.247-138.473c-95.317-90.404-95.978-86.658-205.611-168.822
		c-28.839-21.614-57.532-43.431-86.771-64.495c-12.9-9.294-26.34-17.811-39.614-26.557c-5.415-3.567-16.977-15.994-16.977-9.484
		c0,23.777,73.127,108.116,81.112,119.505c32.819,46.804,79.846,116.442,107.521,166.926c11.407,20.807,22.033,42.19,30.182,64.494
		c4.125,11.292,13.583,38.562,1.886,36.04c-99.747-21.493-224.847-127.036-294.269-199.173
		c-39.988-41.552,67.619-455.426,77.127-461.4c23.443-14.734-78.064,386.074-52.604,396.907
		c129.684,55.173,263.642,145.059,348.972-26.557c19.467-39.151,26.916-84.63,33.954-127.092
		c3.185-19.213-22.622,31.625-33.954,47.422c-55.738,77.707-113.135,157.422-173.543,231.419
		c-122.652,150.25-122.973-67.354-128.27-153.646c-1.318-21.467-1.422-42.992-1.888-64.494c-0.191-8.872-2.885-34.021,1.888-26.557
		c86.716,135.646,144.438,201.249,256.541,318.678c60.111,62.965,57.109,55.085,105.636,117.606
		c7.736,9.969,32.235,38.519,22.636,30.35c-82.226-69.963-169.348-131.288-254.656-197.276
		c-30.703-23.75-71.496-52.761-90.545-89.152c-4.141-7.914-12.289-29.127-3.771-26.558
		c38.864,11.725,118.083,135.352,150.905,172.618c13.348,15.153,50.829,62.791,37.728,47.421
		c-36.789-43.159-59.342-69.869-82.999-127.092c-36.409-88.069-46.443-245.225-13.205-335.749
		c16.087-43.808,47.76-85.045,98.09-83.462c10.231,0.321,22.436-1.036,30.182,5.69c8.131,7.062,10.132,19.611,11.318,30.351
		c2.015,18.235,4.663,37.884-1.887,55.01c-39.082,102.184-221.582,255.772-309.359,318.677
		c-23.448,16.804-48.541,31.206-73.566,45.525c-15.186,8.688-45.272,8.987-45.272,26.556c0,3.225,6.285-1.277,9.432-1.897
		c25.777-5.069,51.583-9.994,77.34-15.175c85.314-17.157,168.448-36.994,247.11-75.875c15.193-7.51,28.828-17.864,43.386-26.557
		c6.305-3.764,25.819-13.712,18.863-11.381c-63.772,21.376-167.023,76.962-224.474,11.381
		c-27.83-31.767-31.248-72.444-33.955-111.916c-1.859-27.124,0-108.754,0-81.566c0,102.546,8.744,199.968,73.568,284.532
		c27.898,36.398,113.072,84.854,86.771,53.113c-40.333-48.671-112.272-68.353-143.362-125.194
		c-0.395-0.724-3.654-26.438-1.886-28.452c33.991-38.737,167.044-72.441,220.702-110.02c15.341-10.744,27.816-25.128,41.499-37.938
		c5.207-4.875,22.107-13.998,15.091-15.175c-27.425-4.597-64.052,23.43-79.227,30.351
		c-102.975,46.959-209.256,86.722-298.041,159.338c-18.974,15.519-36.041,33.602-50.931,53.113
		c-7.264,9.517,5.564,18.438,17.43,19.693c93.767,9.925,140.595-93.893,180.635-161.96c11.454-19.472,19.439-40.824,30.182-60.701
		c9.905-18.326,21.307-34.187,24.522-32.246c3.279,1.979,1.674,7.54,1.887,11.381c1.047,18.951-0.232,38.047,1.886,56.907
		c5.266,46.893,15.781,84.696,37.726,127.091c13.051,25.207,28.904,48.916,45.274,72.081
		c17.568,24.865,86.309,108.607,107.521,134.68"/>
</g>
</svg>
