<?xml version="1.0" encoding="UTF-8" standalone="no"?>
<svg width="320px" height="320px" viewBox="0 0 320 320" version="1.1" xmlns="http://www.w3.org/2000/svg" xmlns:xlink="http://www.w3.org/1999/xlink" xmlns:sketch="http://www.bohemiancoding.com/sketch/ns">
    <title>compass</title>
    <description>Created with Sketch (http://www.bohemiancoding.com/sketch)</description>
    <defs>
        <linearGradient x1="50.0001706%" y1="2.44109266%" x2="50.0001706%" y2="99.8198229%" id="linearGradient-1">
            <stop stop-color="#ED1808" offset="0%"></stop>
            <stop stop-color="#E21708" offset="27.61%"></stop>
            <stop stop-color="#C51407" offset="75.9%"></stop>
            <stop stop-color="#B41306" offset="100%"></stop>
        </linearGradient>
    </defs>
    <g id="Page-2" stroke="none" stroke-width="1" fill="none" fill-rule="evenodd" sketch:type="MSPage">
        <g id="compass" sketch:type="MSArtboardGroup" fill="url(#linearGradient-1)">
            <path d="M317.932182,0 C312.67383,0.531876949 185.073344,4.92800275 82.7498436,48.7807145 C33.5036746,69.8875457 0.0108531502,120.035944 0,177.104169 C0.0108531502,216.034306 15.7913335,251.263013 41.3179428,276.760542 C66.8119925,302.285209 102.030465,318.078698 140.955288,318.089552 C198.026578,318.078698 248.157279,284.581304 269.272083,235.322986 C313.118809,133.001801 317.546895,5.42731581 318.089552,0.157392158 L317.932182,0 L317.932182,0 Z M159.376453,185.264696 C182.631466,209.685442 198.198065,229.464945 195.698517,231.986181 C193.177281,234.496573 173.37609,218.908286 148.949922,195.647851 C148.131199,233.444702 144.840037,261.731343 140.887389,261.731343 C136.934742,261.731343 133.64358,233.444702 132.819434,195.642429 C108.40411,218.908286 88.6083414,234.469463 86.1033715,231.964493 C83.5875575,229.454101 99.1650004,209.685442 122.414592,185.270118 C84.634006,184.445972 56.358209,181.122278 56.358209,177.175053 C56.358209,173.244093 84.634006,169.952932 122.430858,169.128786 C99.1812665,144.702618 83.6092456,124.906849 86.1087935,122.385613 C88.6191854,119.886065 108.40411,135.479774 132.819434,158.718521 C133.64358,120.932513 136.940164,92.6675604 140.887389,92.6567164 C144.840037,92.6567164 148.131199,120.932513 148.949922,158.729365 C173.37609,135.474352 193.161015,119.875221 195.682251,122.385613 C198.198065,124.906849 182.598934,144.702618 159.333077,169.128786 C197.140773,169.952932 225.432836,173.249515 225.432836,177.175053 C225.438258,181.122278 197.167883,184.429706 159.376453,185.264696 L159.376453,185.264696 Z" id="Shape" sketch:type="MSShapeGroup"></path>
        </g>
    </g>
</svg>